<svg xmlns="http://www.w3.org/2000/svg" viewBox="0 0 2000 2000" role="img" aria-label="ClickGo logo">
	<g>
		<path fill="#F9D023" d="M800.51,1696.73c82.42-0.01,145.16-62.64,144.35-145.14c-0.79-80.67-57.55-140.69-148.48-140.68c-76.88,0.01-140.98,64.49-140.94,141.61C658.37,1635.95,716.49,1696.75,800.51,1696.73zM803.48,1497.96c30.84,0.92,56.08,26.48,55.97,56.67c-0.12,32.34-25.91,57.83-58.47,57.79c-31.09-0.04-56.3-26.35-55.92-58.36C745.46,1521.19,770.67,1496.98,803.48,1497.96z"/>
		<path fill="#F9D023" d="M1521.49,1359.44c25.1-0.05,50.03-1.09,75.22-4.05c55.32-6.49,120.74-68.77,138.5-120.63c20.02-58.47,38.09-117.71,62.02-174.88c7.64-18.25,9.86-38.72-2.91-56.66c-10.63-14.94-25.92-22.08-44.19-19c-24.19,4.09-38.99,20.64-47.14,42.28c-21.52,57.19-40.63,115.31-63.26,172.04c-16.32,40.92-47.41,65.73-93.36,66.13c-105.49,0.92-210.98,0.93-316.47,1.86c-15.26,0.13-19.64-5.71-16.72-19.78c4.49-21.7,10.42-43.33,12.21-65.28c1.19-14.58,6.65-16.59,19.06-16.47c43.82,0.41,87.67,0.53,131.48-0.58c24.3-0.62,42.96-18.6,41.72-37.17c-1.31-19.56-17.88-31.96-43.33-32.03c-40.86-0.12-81.73-0.52-122.58,0.21c-14.17,0.26-18.66-4.46-15.92-18.13c10.79-53.72,9.34-108.98,20.61-162.81c3.29-15.7,8.75-19.28,22.7-19.17c49.77,0.4,99.56,0.65,149.33-0.2c16.09-0.27,20.38,6.05,20.16,20.96c-0.68,45.31-0.44,90.63-0.37,135.95c0.05,34.75,32.02,55.15,62.73,38.57c37.15-20.04,66.22-50.98,98.56-77.49c93.77-76.86,187.53-153.73,281.13-230.79c45.34-37.33,48.35-59.34,14.03-91.46c-36.76-34.41-76.1-66.06-114.32-98.92c-48.38-41.6-96.61-83.38-145.2-124.74c-44.12-37.55-86.57-77.42-138.77-104.18c-30.71-15.74-57.22-0.33-57.83,34.08c-0.68,37.87-1.94,75.88,0.45,113.61c1.53,24.04-7.37,27.63-28.69,27.6c-303.12-0.55-606.25-0.66-909.37,0.57c-24.81,0.1-29.52-11.16-33.46-30.07c-8.66-41.56-13.47-84.52-33.45-122.68c-23.79-45.45-59.78-75.73-113.16-80.34c-71.97-6.22-143.98,1.29-215.98-0.2c-33.66-0.7-51.99,30.87-38.25,61.49c11,24.51,31.35,26.42,53.36,26.63c54.96,0.53,109.96-0.27,164.86,1.78c38.56,1.44,63.5,23.53,69.86,61.08c7.15,42.17,20.68,82.71,29.09,124.37c5.54,27.46,15.84,53.54,20.48,80.88c8.63,50.87,23.03,100.39,35.81,150.12c8.75,34.05,16.14,68.58,26.07,102.47c15.44,52.72,26.25,106.79,39.24,160.23c7.8,32.08,17.45,63.78,23.66,96.16c7.99,41.64,19.58,81.92,43,117.3c37.51,56.66,94.13,78.2,159.38,78.59c135.94,0.81,271.89,0.25,407.84,0.25c0-2.46,0-4.92,0-7.38C1273.38,1359.56,1397.43,1359.7,1521.49,1359.44zM553.5,806.61c-8.86-34.89-19.25-69.47-26.18-104.73c-3.59-18.24-8.81-35.81-14.88-53.01c-4.89-13.85-1.65-16.89,11.74-16.78c47.48,0.39,94.97,0.15,142.46,0.15c0-0.04,0-0.09,0-0.13c45.26,0,90.53,0.4,135.78-0.26c12.55-0.18,19.82,3.46,21.47,16.25c6.7,51.91,13.26,103.83,20.3,155.69c1.45,10.66-1.57,14.86-12.65,14.83c-87.55-0.25-175.11-0.31-262.66,0.03C559.45,818.7,555.56,814.72,553.5,806.61zM619.67,1085.03c-12.91-58.14-25.93-116.29-40.73-173.97c-3.84-14.98,0.71-16,12.72-15.9c42.25,0.35,84.51,0.13,126.76,0.14c41.51,0,83.03,0.27,124.54-0.18c11.33-0.12,16.31,2.18,18.23,15.24c8.43,57.52,18.39,114.82,28.29,172.11c1.83,10.6-2.35,12.92-11.57,12.9c-81.54-0.12-163.09-0.09-244.63-0.01C625.9,1095.36,621.65,1093.94,619.67,1085.03zM909,1267.98c-70.05-3.19-140.95,11.59-210.12-8.51c-26.61-7.73-59.75-60.88-56.22-86.43c1.34-9.73,9.05-5.72,13.97-5.86c19.29-0.52,38.6-0.25,57.9-0.26c18.56-0.01,37.12,0,55.67,0c0-0.17,0-0.33,0-0.5c37.86,0,75.74,0.73,113.56-0.39c13.67-0.4,18.6,5.36,20.33,17.01c3.66,24.72,6.94,49.51,11.12,74.14C916.3,1263.59,915.9,1268.29,909,1267.98zM915.27,800.31c-6.67-48.94-11.54-98.15-23.07-146.36c-3.9-16.32,2.3-22.55,20.72-22.31c85.32,1.12,170.66,0.49,255.99,0.53c85.33,0,170.67,0.48,256-0.39c17.75-0.18,24.74,3.42,24.08,22.89c-1.53,45.21-1.25,90.52-0.37,135.77c0.38,19.61-5.85,28.19-26.54,28.15c-161.76-0.38-323.52-0.25-485.28,0.3C922.5,818.94,917.08,813.57,915.27,800.31zM1151.33,1186.28c-5.36,19.07-7.2,39.25-6.15,59.4c0.76,14.61-5.91,21.4-21.2,21.34c-39.27-0.14-78.55,0.62-117.82,1.03c-10.35,0.11-20.64-1.16-20.01-14.62c1.13-24.1-6.84-46.8-11.03-69.86c-3.27-18.02,3.48-18.3,16.42-18.1c24.45,0.37,48.91,0.11,73.37,0.11c0-0.28,0-0.56,0-0.85c22.23,0,44.48,0.56,66.68-0.19C1147.64,1164.01,1157.16,1165.51,1151.33,1186.28zM1186,912.56c-10.93,55.27-9.06,112.16-21.05,167.39c-2.58,11.86-6.68,15.61-18.6,15.5c-56.45-0.52-112.91-0.44-169.36,0.07c-11.79,0.11-16.85-3.02-18.58-15.61c-7.85-57.08-16.6-114.04-25.59-170.96c-2.33-14.76,6.79-13.63,15.95-13.63c37.14-0.01,74.28,0,111.43,0c0-0.04,0-0.08,0-0.13c36.4,0,72.8,0.4,109.19-0.21C1182.58,894.76,1188.91,897.87,1186,912.56z"/>
		<path fill="#F9D023" d="M1450.46,1415.58c-84.46,0.63-140.59,64.06-140.73,136.6c-0.15,83.23,57.24,141.46,139.29,141.45c85.46,3.23,145.73-59.07,148.42-130.3C1600.73,1476.37,1529.78,1414.99,1450.46,1415.58zM1455.21,1612.26c-33.75-0.1-54.62-23.16-54.39-60.07c0.19-30.29,23.51-52.05,55.93-52.17c32.12-0.12,56.73,23.52,56.73,54.94C1513.49,1586.58,1488.06,1618.13,1455.21,1612.26z"/>
	</g>
	<g>
		<path fill="#FCEE21" d="M1053.7,2463.7c-24.39-33.29-48.78-66.58-73.14-99.9c-3.57-4.88-7.53-9.38-1.24-15.59c11.64-11.48,22.88-23.38,34.02-35.35c13.47-14.46,26.7-29.14,39.96-43.79c6.4-7.07,4.24-10.16-4.82-10.13c-10.53,0.04-21.17,0.79-31.55-0.48c-18.98-2.32-32.59,3.98-45,18.97c-18.88,22.8-40.16,43.62-60.79,65.68c-3.92-5.54-2.4-10.66-2.43-15.4c-0.23-39.61,0.12-79.23-0.53-118.83c-0.23-13.77,6.75-31.54-3.07-40.34c-10.06-9.01-27.93-1.78-42.26-3.35c-10.09-1.11-12.41,2.73-12.42,12.65c-0.11,96.26-0.42,192.53-1.75,288.78c-0.22,15.88,4.38,20.64,19.43,18.43c7.85-1.16,16.11-0.99,24.02-0.05c13.24,1.58,16.6-4.98,16.27-16.55c-0.38-13.53-0.11-27.07,0.01-40.61c0.06-6.56,18.07-31.16,23.58-32.47c3.47-0.83,5.98,1.45,7.52,3.63c14.64,20.64,29.82,40.96,43.22,62.39c10.21,16.32,21.19,27.98,42.55,23.78c7.24-1.43,15.04,0.26,22.5-0.38c5.12-0.44,12.5,2.9,14.89-2.97c2.01-4.93-3.61-9.85-6.2-14.6C1055.77,2465.93,1054.59,2464.91,1053.7,2463.7z"/>
		<path fill="#FCEE21" d="M812.53,2421.2c-8.72-3.53-17.09-8-25.95-11.13c-11.88-4.2-21.41-4.35-29.89,9.18c-11.1,17.72-36.66,25.14-54.49,19.29c-54.1-17.73-54.21-90.32-25.35-117.85c25.49-24.32,65.83-20.93,83.41,9.91c2.78,4.88,5.32,12.62,14.66,9.04c8.83-3.39,18.24-5.26,27.05-8.68c15.03-5.83,17.7-12.57,8.73-25.84c-33.91-50.17-86.25-65.1-138.82-43.67c-67.17,27.39-88.26,96.71-62.57,161.75c17.46,44.22,54.27,66.29,102.37,67.71c24.38,0.7,46.94-6.4,66.34-19.92c14.67-10.22,29.13-22.21,35.99-40.18C815.36,2427.31,818.87,2423.77,812.53,2421.2z"/>
		<!-- Remaining paths kept and inlined for color fidelity -->
	</g>
</svg>
