<?xml version="1.0" encoding="utf-8"?>
<!-- Generator: $$$/GeneralStr/196=Adobe Illustrator 27.6.0, SVG Export Plug-In . SVG Version: 6.00 Build 0)  -->
<svg version="1.1" id="Capa_1" xmlns="http://www.w3.org/2000/svg" xmlns:xlink="http://www.w3.org/1999/xlink" x="0px" y="0px"
	 viewBox="0 0 1901.84 329.53" style="enable-background:new 0 0 1901.84 329.53;" xml:space="preserve">
<style type="text/css">
	.st0{fill:#FCEE21;}
</style>
<g>
	<path class="st0" d="M992.43,301.64c-24.39-33.29-48.78-66.58-73.14-99.9c-3.57-4.88-7.53-9.38-1.24-15.59
		c11.64-11.48,22.88-23.38,34.02-35.35c13.47-14.46,26.7-29.14,39.96-43.79c6.4-7.07,4.24-10.16-4.82-10.13
		c-10.53,0.04-21.17,0.79-31.55-0.48c-18.98-2.32-32.59,3.98-45,18.97c-18.88,22.8-40.16,43.62-60.79,65.68
		c-3.92-5.54-2.4-10.66-2.43-15.4c-0.23-39.61,0.12-79.23-0.53-118.83c-0.23-13.77,6.75-31.54-3.07-40.34
		c-10.06-9.01-27.93-1.78-42.26-3.35c-10.09-1.11-12.41,2.73-12.42,12.65c-0.11,96.26-0.42,192.53-1.75,288.78
		c-0.22,15.88,4.38,20.64,19.43,18.43c7.85-1.16,16.11-0.99,24.02-0.05c13.24,1.58,16.6-4.98,16.27-16.55
		c-0.38-13.53-0.11-27.07,0.01-40.61c0.06-6.56,18.07-31.16,23.58-32.47c3.47-0.83,5.98,1.45,7.52,3.63
		c14.64,20.64,29.82,40.96,43.22,62.39c10.21,16.32,21.19,27.98,42.55,23.78c7.24-1.43,15.04,0.26,22.5-0.38
		c5.12-0.44,12.5,2.9,14.89-2.97c2.01-4.93-3.61-9.85-6.2-14.6C994.5,303.86,993.31,302.84,992.43,301.64z"/>
	<path class="st0" d="M751.26,259.14c-8.72-3.53-17.09-8-25.95-11.13c-11.88-4.2-21.41-4.35-29.89,9.18
		c-11.1,17.72-36.66,25.14-54.49,19.29c-54.1-17.73-54.21-90.32-25.35-117.85c25.49-24.32,65.83-20.93,83.41,9.91
		c2.78,4.88,5.32,12.62,14.66,9.04c8.83-3.39,18.24-5.26,27.05-8.68c15.03-5.83,17.7-12.57,8.73-25.84
		c-33.91-50.17-86.25-65.1-138.82-43.67c-67.17,27.39-88.26,96.71-62.57,161.75c17.46,44.22,54.27,66.29,102.37,67.71
		c24.38,0.69,46.94-6.4,66.34-19.92c14.67-10.22,29.13-22.21,35.99-40.18C754.08,265.24,757.6,261.7,751.26,259.14z"/>
	<path class="st0" d="M275.92,235.46c-5.45-0.88-8.78-4.35-13.32-6.16c-11.96-4.79-20.78-4.84-28.95,8.17
		c-24.81,39.52-81.14,44.7-115.95,25.42c-37.88-20.98-54.96-54.63-54.13-95.9c-2.93-56.74,34.45-97.69,78.16-105.16
		c43.53-7.44,69.09,4.47,91.68,37.89c7.57,11.21,13.24,10.86,22.69,6.77c9.15-3.96,18.09-8.54,27.48-11.8
		c10.16-3.54,12.12-9.38,7.24-18.32c-2.38-4.35-4.55-8.92-7.56-12.82C237.12,3.82,176.52-9.4,109.86,11.37
		C48.02,30.63,10.64,77.5,2.17,141.6c-7.15,54.14,6.41,104.14,48.72,143.42c47.07,43.7,102.62,51.02,161.39,35.65
		c31.6-8.26,57.1-29.63,76.07-57.19C299.73,246.96,296.38,238.78,275.92,235.46z"/>
	<path class="st0" d="M346.76,2.8c-12.53-0.03-14.92,4.72-14.79,15.98c0.52,47.64,0.22,95.3,0.22,142.94
		c0,43.13-0.04,86.27,0.01,129.4c0.04,30.51,0.1,30.51,31.11,30.6c26.91,0.08,27.07,0.08,27.05-27.87
		c-0.03-82.76-0.14-165.51-0.35-248.27C389.91,2.45,389.78,2.91,346.76,2.8z"/>
	<path class="st0" d="M500.83,209.7c0.03,0,0.06,0,0.09,0c0-12.04,0-24.08,0-36.12c0-12.04,0.01-24.08,0-36.12
		c-0.04-41.32-0.05-40.88-41.66-41.24c-12.54-0.11-16.25,3.83-16.11,16.26c0.64,56.19,0.41,112.38,0.45,168.58
		c0.03,42.42-0.01,42.01,42.35,41.28c12.28-0.21,15.23-5.15,15.06-16.31C500.51,273.93,500.83,241.81,500.83,209.7z"/>
	<path class="st0" d="M472.96,0.63c-19.63-0.05-32.55,13.44-32.92,34.36c-0.37,20.8,12.29,34.15,32.3,34.05
		c18.28-0.09,34.17-15.44,34.98-33.78C508.06,18.47,490.4,0.67,472.96,0.63z"/>
	<path class="st0" d="M1275.56,261.61c-6.56-7.42-5.76-11.73-1.19-19.24c12.16-19.98,24.91-39.87,25.3-64.69
		c0.09-5.49-0.15-8.9-6.41-8.81c-13.01,0.17-27.05-2.49-38.67,1.64c-8.05,2.86-8.74,16.84-12.07,26.14
		c-0.67,1.88-1.67,3.64-2.42,5.5c-3.62,8.87-9.55,8.07-13.75,1.62c-8.42-12.96-19.97-23.02-29.7-34.72
		c-5.9-7.09-5.67-12.7,3.42-17.81c8.58-4.83,16.83-10.71,24.07-17.38c22.9-21.06,26.28-48.97,18.89-76.21
		c-7.38-27.18-27.67-45.2-56.32-51.82C1139.85-5,1094.7,18.1,1081.6,61.01c-8.72,28.54,1.34,54.09,17.37,77.42
		c4.08,5.94,5.33,8.29-1.85,12.36c-14.85,8.42-26.44,20.73-37.96,33.32c-26.29,28.71-28.82,92.4,8.34,121.04
		c40.09,30.89,110.31,31.07,155.52-6.07c5.96-4.89,7.53-6.2,11.61,0.74c10.83,18.47,25.84,28.92,44.68,23.16
		c9.76,0,15.79,0.26,21.79-0.08c4.77-0.27,11.37,2.06,13.7-2.96c2.46-5.3-2.19-10.79-5.58-14.63
		C1296.98,291.47,1287.7,275.34,1275.56,261.61z M1135.78,74.89c5.89-14.07,13.93-22.77,29.09-20.31
		c15.05-1.04,25.24,3.94,29.92,17.9c4.81,14.33,0.97,27.7-10.78,37.06c-1.17,0.93-2.07,2.48-3.37,2.92
		c-9.12,3.11-15.91,18.7-25.79,11.01C1142.23,113.65,1129.66,89.5,1135.78,74.89z M1190.76,262.04
		c-13.32,6.84-26.31,14.29-41.29,17.38c-19.82,4.09-54.61-17.57-52.23-41.67c-0.04-15.48,21.52-45.27,35.98-50.29
		c4.01-1.39,4.96,0.95,7,3.24c17.42,19.54,35.01,38.93,52.55,58.36C1197.42,254.21,1197.5,258.58,1190.76,262.04z"/>
	<path class="st0" d="M1624.79,150.33c-19.54,0.57-39.11,0.17-58.67,0.19c-10.03,0-20.06-0.03-30.09,0
		c-43.78,0.14-43.55,0.13-42.17,43.78c0.27,8.36,2.39,11.34,11.11,11.09c21.04-0.59,42.12,0.12,63.17-0.3
		c10.01-0.2,14.98,0.96,11.15,13.28c-9.53,30.62-31.72,45.42-61.27,51.29c-50.67,10.07-85.82-7.7-108.93-46.17
		c-22.6-37.63-22.17-78.08,0.69-116.47c13.22-22.19,32.79-36.8,58.32-43.55c38.63-10.21,70.95-1.12,97.12,29.31
		c5.1,5.93,11.16,11.03,19.5,7.64c9.12-3.71,18.07-8.06,26.54-13.07c10.53-6.22,11.68-14.07,4.29-24.63
		c-30.67-43.81-75.33-60.22-125.54-58.74c-63.7,1.87-113.79,30.9-142.48,89.69c-20.87,42.78-21.21,86.94-5.66,132.38
		c17.62,51.47,54.17,82.86,104.26,95.19c38.49,9.47,78.66,9.49,116.96-9.57c35.91-17.87,60.51-43.54,71.54-82.25
		c6.17-21.67,3.72-43.75,4.57-65.71C1639.63,152.84,1634.81,150.04,1624.79,150.33z"/>
	<path class="st0" d="M1788.32,91.47c-67.92-0.4-120.35,49.33-119.63,119.55c0.71,68.06,48.61,116.31,115.75,116.59
		c61.83,0.26,120.05-46.96,116.83-119.15C1905.33,137.94,1850.28,91.83,1788.32,91.47z M1784.03,276.76
		c-33.03,1.66-57.44-28.88-57.45-68.69c-0.01-35.95,27.23-65.7,59.9-65.4c32.44,0.29,59.77,30.7,59.84,66.57
		C1842.21,251.69,1820.8,274.91,1784.03,276.76z"/>
</g>
</svg>
